<?xml version="1.0" standalone="no"?>
<!DOCTYPE svg PUBLIC "-//W3C//DTD SVG 20010904//EN"
 "http://www.w3.org/TR/2001/REC-SVG-20010904/DTD/svg10.dtd">
<svg version="1.0" xmlns="http://www.w3.org/2000/svg"
 width="512.000000pt" height="512.000000pt" viewBox="0 0 512.000000 512.000000"
 preserveAspectRatio="xMidYMid meet">

<g transform="translate(0.000000,512.000000) scale(0.100000,-0.100000)"
fill="#000000" stroke="none">
<path d="M3130 4772 l-25 -20 -3 -444 c-2 -341 0 -454 10 -483 34 -102 165
-113 290 -23 42 29 117 30 156 2 68 -51 89 -125 54 -194 -44 -88 -138 -103
-245 -38 -101 63 -189 57 -241 -15 -20 -27 -21 -41 -21 -374 l0 -345 24 -19
c22 -18 43 -19 337 -19 353 0 338 4 286 -73 -39 -56 -52 -99 -52 -165 0 -74
16 -121 59 -178 79 -105 226 -138 345 -80 161 79 206 282 96 436 -42 59 -39
60 168 60 139 0 193 3 206 13 54 39 103 538 77 778 -33 299 -141 527 -351 739
-271 274 -627 429 -1044 456 -92 6 -103 5 -126 -14z m295 -142 c301 -51 573
-187 770 -385 145 -145 239 -307 293 -503 25 -92 26 -109 27 -342 0 -155 -5
-276 -13 -330 -23 -145 3 -128 -200 -132 -166 -3 -179 -4 -209 -26 -67 -48
-68 -146 -3 -252 47 -76 51 -116 17 -174 -57 -100 -196 -100 -255 0 -31 53
-25 105 21 180 62 100 59 199 -6 246 -31 22 -39 23 -329 26 l-298 3 0 270 c0
209 3 269 13 269 6 0 36 -16 66 -35 104 -66 215 -68 313 -6 185 118 170 392
-27 493 -49 26 -149 35 -201 18 -21 -7 -56 -23 -77 -36 -21 -14 -49 -29 -62
-34 l-25 -10 0 390 0 390 34 0 c19 0 87 -9 151 -20z"/>
<path d="M2205 4033 c-223 -20 -490 -117 -664 -240 -84 -60 -200 -171 -258
-248 -96 -127 -131 -227 -168 -477 -49 -330 -54 -340 -373 -681 -138 -148
-252 -279 -263 -302 -35 -75 -15 -170 47 -226 16 -14 85 -61 154 -104 69 -43
133 -86 144 -94 10 -9 38 -56 62 -104 30 -58 53 -91 69 -99 20 -9 23 -16 19
-35 -4 -16 2 -43 17 -74 23 -49 23 -50 8 -172 -8 -67 -14 -165 -14 -217 1
-112 17 -151 88 -217 106 -98 152 -101 537 -39 156 26 289 45 296 42 7 -3 13
-58 18 -152 7 -162 18 -201 69 -238 28 -21 40 -21 670 -24 718 -3 686 -5 735
68 22 33 24 41 18 125 -34 504 -22 573 169 975 112 235 162 361 200 503 32
119 32 140 -2 167 -26 21 -35 21 -238 18 -235 -3 -248 -7 -281 -76 -23 -49 -8
-133 36 -198 78 -113 29 -240 -98 -251 -52 -5 -97 18 -136 70 -31 41 -28 114
7 164 62 90 74 174 34 234 -36 54 -61 58 -374 58 l-283 1 0 270 c0 213 3 270
13 270 7 0 37 -16 66 -35 199 -127 445 3 444 235 0 108 -50 193 -145 245 -46
26 -63 30 -133 30 -82 0 -95 -4 -195 -60 l-45 -26 -3 437 c-3 522 7 485 -126
482 -45 -1 -99 -3 -121 -5z m107 -545 c3 -449 2 -443 61 -478 58 -36 153 -20
236 39 45 32 94 36 144 12 81 -39 112 -141 64 -212 -51 -76 -145 -89 -230 -30
-26 17 -71 36 -101 42 -47 10 -59 9 -92 -7 -21 -11 -47 -32 -58 -47 -20 -27
-21 -44 -24 -323 l-3 -294 -270 0 c-290 0 -290 0 -250 51 73 94 87 211 38 311
-51 104 -141 158 -261 158 -106 0 -194 -57 -248 -160 -18 -36 -23 -60 -23
-125 0 -82 5 -95 67 -193 11 -18 18 -35 16 -38 -3 -2 -145 -3 -317 -2 l-312 3
167 180 c92 99 182 203 201 232 69 108 99 208 132 446 27 189 58 286 121 380
56 84 168 194 260 257 172 117 437 205 627 209 l52 1 3 -412z m-676 -927 c89
-40 109 -137 50 -230 -74 -114 -66 -225 19 -265 28 -13 79 -16 319 -16 l286 0
0 -270 c0 -190 -3 -270 -11 -270 -6 0 -38 17 -72 37 -52 33 -70 38 -134 42
-92 4 -149 -15 -211 -73 -69 -63 -87 -106 -87 -206 0 -100 18 -143 87 -206 63
-59 120 -78 213 -72 64 4 83 10 134 41 32 21 64 37 70 37 8 0 11 -94 11 -320
l0 -320 -123 0 -124 0 -7 153 c-8 181 -18 210 -88 245 l-47 23 -322 -51 c-204
-33 -334 -49 -356 -45 -44 8 -109 66 -124 112 -9 28 -7 69 11 214 21 166 21
182 7 226 -14 43 -14 49 0 65 21 23 20 64 -2 88 -10 11 -38 31 -62 45 -35 21
-51 40 -82 103 -22 42 -52 89 -68 104 -15 14 -86 63 -158 109 -167 105 -167
105 -163 148 l3 36 418 5 419 5 35 39 c34 37 35 41 31 101 -3 50 -11 75 -40
121 -19 33 -38 71 -41 85 -14 57 30 140 87 165 42 18 74 17 122 -5z m1355
-534 c-5 -13 -21 -40 -35 -61 -63 -93 -62 -219 2 -314 113 -169 364 -166 473
6 61 97 59 211 -6 313 -19 30 -35 60 -35 67 0 9 33 12 134 12 l135 0 -15 -52
c-33 -112 -90 -251 -185 -450 -116 -242 -163 -376 -186 -525 -14 -94 -14 -133
-4 -308 7 -110 15 -210 18 -222 l5 -23 -421 0 -421 0 0 343 c0 322 -1 344 -20
374 -49 80 -151 84 -260 9 -109 -75 -244 -11 -244 114 0 85 61 145 147 145 42
0 61 -6 97 -31 106 -74 212 -70 260 9 19 30 20 52 20 325 l0 292 275 0 275 0
-9 -23z"/>
</g>
</svg>
